<?xml version="1.0" encoding="UTF-8" standalone="no"?>


<!DOCTYPE svg PUBLIC "-//W3C//DTD SVG 1.1//EN"
  "http://www.w3.org/Graphics/SVG/1.1/DTD/svg11.dtd">

<svg class="svg"
     xmlns="http://www.w3.org/2000/svg"
     xmlns:xlink="http://www.w3.org/1999/xlink"
     version="1.1"
     width="800"
     height="300">
  <!--<rect width="800" height="300" fill="#091a46"/>-->

  <g id="noBootingGroup">
    <g transform="translate(-152,-560.36219)" id="layer1">
      <path d="
    m 302,560.36219
    c -82.8,0 -150,67.2 -150,149.99997 0,82.8 67.2,150 150,150 82.8,0 150,-67.2 150,-150 0,-82.79997 -67.2,-149.99997 -150,-149.99997 z
    m 0,28.57143
    c 67.02858,0 121.42857,54.39999 121.42857,121.42854 0,28.04196 -9.54624,53.85135 -25.53012,74.4141
    L 227.58593,614.46374
    C 248.14865,598.47986 273.9581,588.93362 302,588.93362 z
    m -95.89845,47.0145 170.31252,170.31252
    C 355.85135,822.24449 330.0419,831.79073 302,831.79073
    c -67.02858,0 -121.42857,-54.39999 -121.42857,-121.42857 0,-28.04187 9.54624,-53.85132 25.53012,-74.41404 z"
            style="fill:white;"/>
    </g>
    <g transform="translate(315) scale(3.5)">
      <text transform="matrix(1 0 0 1 0 31.8)" fill="white" font-family="Arial" font-weight="bold" font-size="20">
        Towing
      </text>
      <text transform="matrix(1 0 0 1 0 51.8)" fill="white" font-family="Arial" font-weight="bold" font-size="20">
        Ticketing
      </text>
      <text transform="matrix(1 0 0 1 0 71.8)" fill="white" font-family="Arial" font-weight="bold" font-size="20">
        Wheel
        Booting
      </text>


    </g>

    <animateTransform attributeName="transform" attributeType="XML" type="scale" dur="12s"
                      from=".8" to=".8"
                      values=".8;.1;.8;.8;.8" keyTimes="0;.1;.25;.5;1"
                      begin="0" fill="freeze" repeatCount="5"/>

    <animateTransform attributeName="transform" attributeType="XML" type="translate" dur="12s"
                      values="100 10;1200 500;100 45;100 45;100 45" keyTimes="0;.1;.25;.5;1"
                      begin="0" fill="freeze" additive="sum" repeatCount="5"/>


    <!--<animate attributeName="fill-opacity" attributeType="XML" begin="0s" from="1" to=".1" dur="2s" fill="freeze"/>-->
    <animate attributeName="fill-opacity" attributeType="XML" begin="0s" from="0" to="0" dur="12s"
             values=".1;1;1;0;0" keyTimes="0;.1;.25;.5;1"
             fill="freeze" repeatCount="5"/>

  </g>

  <g id="logoGroup">


    <!-- gobacky -->
    <g transform="scale(9) translate(10 4)">
      <g transform="scale(1 .6)">
        <g transform="scale(1.42)">
          <linearGradient id="SVGID_1_" gradientUnits="userSpaceOnUse" x1="0.25" y1="11.9961" x2="14.8916"
                          y2="11.9961">
            <stop offset="0" style="stop-color:#BE1E2D"/>
            <stop offset="1" style="stop-color:#F15A29"/>
          </linearGradient>
          <linearGradient id="SVGID_2_" gradientUnits="userSpaceOnUse" x1="15.0469" y1="11.9961" x2="29.6855"
                          y2="11.9961">
            <stop offset="0" style="stop-color:#BE1E2D"/>
            <stop offset="1" style="stop-color:#F15A29"/>
          </linearGradient>
          <linearGradient id="SVGID_3_" gradientUnits="userSpaceOnUse" x1="24.5469" y1="12.5703" x2="29.6855"
                          y2="12.5703">
            <stop offset="0" style="stop-color:#BE1E2D"/>
            <stop offset="1" style="stop-color:#F15A29"/>
          </linearGradient>
          <linearGradient id="SVGID_4_" gradientUnits="userSpaceOnUse" x1="24.8574" y1="22.6904" x2="47.1299"
                          y2="22.6904">
            <stop offset="0" style="stop-color:#BE1E2D"/>
            <stop offset="1" style="stop-color:#F15A29"/>
          </linearGradient>
          <polyline fill="url(#SVGID_1_)"
                    points="14.892,23.840 14.892,14.937 5.701,0.152 0.250,0.152"/>
          <polyline fill="url(#SVGID_2_)"
                    points="15.047,23.840 29.686,0.152 24.236,0.152 15.047,15.079"/>
          <polyline fill="url(#SVGID_3_)"
                    points="24.547,8.614 29.686,0.298 29.686,20.031 24.547,24.843"/>
          <polyline fill="url(#SVGID_4_)"
                    points="24.621,24.893 29.686,20.150 39.125,20.150 44.190,24.893"/>
        </g>
      </g>
      <!--<text transform="matrix(1 0 0 1 0 31.8)" fill="#F15A22" font-family="Backslash" font-size="20">violox</text>-->

      <g transform="translate(-4.5 20)">
        <g transform="translate(-210 -376.00)">
          <path id="violox"
                fill="#F15A22" stroke="none" stroke-width="1"
                d="M 219.78,384.00
           C 219.78,384.00 225.45,378.00 225.45,378.00
             225.45,378.00 223.06,378.00 223.06,378.00
             223.06,378.00 219.08,382.33 219.08,382.33
             219.08,382.33 214.91,378.00 214.91,378.00
             214.91,378.00 212.16,378.00 212.16,378.00
             212.16,378.00 218.12,384.00 218.12,384.00
             218.12,384.00 219.78,384.00 219.78,384.00 Z
           M 229.39,384.00
           C 229.39,384.00 229.39,378.00 229.39,378.00
             229.39,378.00 227.00,378.00 227.00,378.00
             227.00,378.00 227.00,384.00 227.00,384.00
             227.00,384.00 229.39,384.00 229.39,384.00 Z
           M 232.00,382.56
           C 232.00,383.12 232.18,383.51 232.53,383.70
             232.89,383.90 233.59,384.00 234.61,384.00
             234.61,384.00 242.39,384.00 242.39,384.00
             243.41,384.00 244.10,383.90 244.45,383.70
             244.82,383.51 245.00,383.12 245.00,382.56
             245.00,382.56 245.00,379.42 245.00,379.42
             245.00,378.87 244.82,378.50 244.45,378.30
             244.10,378.10 243.41,378.00 242.39,378.00
             242.39,378.00 234.61,378.00 234.61,378.00
             233.59,378.00 232.89,378.10 232.53,378.30
             232.18,378.50 232.00,378.87 232.00,379.42
             232.00,379.42 232.00,382.56 232.00,382.56 Z
           M 234.39,379.11
           C 234.39,379.11 242.61,379.11 242.61,379.11
             242.61,379.11 242.61,382.89 242.61,382.89
             242.61,382.89 234.39,382.89 234.39,382.89
             234.39,382.89 234.39,379.11 234.39,379.11 Z
           M 257.12,384.00
           C 257.12,384.00 257.12,382.86 257.12,382.86
             257.12,382.86 249.39,382.86 249.39,382.86
             249.39,382.86 249.39,378.00 249.39,378.00
             249.39,378.00 247.00,378.00 247.00,378.00
             247.00,378.00 247.00,384.00 247.00,384.00
             247.00,384.00 257.12,384.00 257.12,384.00 Z
           M 260.00,382.56
           C 260.00,383.12 260.18,383.51 260.53,383.70
             260.89,383.90 261.59,384.00 262.61,384.00
             262.61,384.00 270.39,384.00 270.39,384.00
             271.41,384.00 272.10,383.90 272.45,383.70
             272.82,383.51 273.00,383.12 273.00,382.56
             273.00,382.56 273.00,379.42 273.00,379.42
             273.00,378.87 272.82,378.50 272.45,378.30
             272.10,378.10 271.41,378.00 270.39,378.00
             270.39,378.00 262.61,378.00 262.61,378.00
             261.59,378.00 260.89,378.10 260.53,378.30
             260.18,378.50 260.00,378.87 260.00,379.42
             260.00,379.42 260.00,382.56 260.00,382.56 Z
           M 262.39,379.11
           C 262.39,379.11 270.61,379.11 270.61,379.11
             270.61,379.11 270.61,382.89 270.61,382.89
             270.61,382.89 262.39,382.89 262.39,382.89
             262.39,382.89 262.39,379.11 262.39,379.11 Z
           M 277.44,384.00
           C 277.44,384.00 280.92,381.67 280.92,381.67
             280.92,381.67 284.70,384.00 284.70,384.00
             284.70,384.00 287.97,384.00 287.97,384.00
             287.97,384.00 282.41,380.75 282.41,380.75
             282.41,380.75 286.91,378.00 286.91,378.00
             286.91,378.00 284.14,378.00 284.14,378.00
             284.14,378.00 281.00,380.03 281.00,380.03
             281.00,380.03 277.70,378.00 277.70,378.00
             277.70,378.00 274.52,378.00 274.52,378.00
             274.52,378.00 279.50,380.92 279.50,380.92
             279.50,380.92 274.61,384.00 274.61,384.00
             274.61,384.00 277.44,384.00 277.44,384.00 Z"/>
        </g>

      </g>
    </g>


    <animate attributeName="fill-opacity" attributeType="XML" begin="0s" from="0" to="1" dur="12s"
             keyTimes="0;.4;.6;1"
             values="0;0;1;1"
             fill="freeze" repeatCount="5"/>

  </g>

</svg>
