<!--?xml version="1.0" encoding="utf-8"?-->
<!-- Generator: Adobe Illustrator 18.1.1, SVG Export Plug-In . SVG Version: 6.00 Build 0)  -->

<svg version="1.1" id="_x31_0" xmlns="http://www.w3.org/2000/svg" xmlns:xlink="http://www.w3.org/1999/xlink" x="0px" y="0px" viewBox="0 0 512 512" style="width: 256px; height: 256px; opacity: 1;" xml:space="preserve">
<style type="text/css">
	.st0{fill:#FFFFFF;}
</style>
<g>
	<path class="st0" d="M209.986,163.784c-13.539,31.672,17.543,51.61,34.11,60.442c2.078,1.058,3.882,2.004,5.375,2.75l6.515,3.297
		l6.555-3.297c1.492-0.746,3.297-1.692,5.378-2.75c16.562-8.832,47.649-28.77,34.066-60.442
		c-6.477-15.152-5.691-16.133-2.785-19.742l7.613-9.383l-7.812-9.183c-0.825-0.942-3.336-3.965-5.219-6.516l-6.398-8.554
		l-10.046,3.531c-2,0.707-4.161,1.058-6.438,1.058c-4.79,0-8.477-1.61-8.516-1.61l-5.965-3.336l-6.633,3.258
		c-0.039,0-3.77,1.687-8.714,1.687c-2.238,0-4.395-0.351-6.398-1.058l-10.086-3.531l-6.359,8.554
		c-2.238,3.023-5.18,6.516-5.219,6.516l-7.812,9.183l7.574,9.383C215.717,147.651,216.502,148.632,209.986,163.784z
		 M229.885,127.636c13.778,4.824,26.102-1.219,26.102-1.219s12.363,6.043,26.141,1.219c2.59,3.453,5.809,7.262,5.809,7.262
		c-8.242,10.164-6.516,17.66,0.706,34.617c7.262,16.914-5.3,30.692-32.656,44.508c-27.316-13.816-39.918-27.594-32.656-44.508
		c7.262-16.957,8.949-24.453,0.746-34.617C224.076,134.898,227.295,131.089,229.885,127.636z" style="fill: rgb(255, 255, 255);"></path>
	<path class="st0" d="M508.279,242.636c-33.636-38.153-48.629-80.266-53.301-105.973c-1.058-5.93-5.613-10.598-11.538-11.738
		c-19.035-3.687-60.914-12.442-90.782-23.234c-35.953-12.953-75.871-30.613-90.707-37.285c-3.805-1.727-8.125-1.727-11.89,0
		c-14.836,6.672-54.793,24.332-90.703,37.285c-29.91,10.793-71.75,19.547-90.824,23.234c-5.887,1.141-10.442,5.809-11.539,11.738
		c-4.633,25.707-19.625,67.82-53.262,105.973c-4.434,4.984-4.985,12.285-1.294,17.816c30.809,45.922,68.958,105.582,68.958,105.582
		h24.062c1.492,3.019,3.965,5.375,6.906,6.828v0.039h0.039c13.465,35.519,52.789,75.988,153.582,75.988
		c100.832,0,140.16-40.469,153.622-75.988h0.038v-0.039c2.946-1.453,5.414-3.847,6.906-6.828h24.024c0,0,38.148-59.66,69-105.582
		C513.264,254.921,512.674,247.62,508.279,242.636z M102.522,327.757l-0.062,0.043c-0.434,0.141-0.871,0.301-1.309,0.438
		c-2.629-1.688-4.75-4.278-5.457-7.535c-0.59-2.594-0.156-5.222,0.942-7.5c0.55-1.254,1.297-2.434,2.16-3.414
		c1.648-1.843,3.687-3.14,5.77-3.609c0.59-0.118,1.137-0.157,1.687-0.157c2.082,0,4.082,0.786,5.809,2.157
		c1.375,1.102,2.55,2.55,3.375,4.281c0.59,1.098,1.058,2.313,1.336,3.61c0.312,1.375,0.39,2.707,0.312,4.004
		c-0.039,1.098-0.234,2.156-0.508,3.137c-1.023,3.535-3.496,6.242-6.793,6.949c-0.59,0.156-1.214,0.195-1.882,0.195
		c-1.61,0-3.258-0.39-4.867-1.098h-0.039l-0.313-1.531c-0.05,0.016-0.106,0.035-0.152,0.051L102.522,327.757z M401.287,290.753
		c-0.039,0-0.039,0-0.039,0c-7.222,1.414-13.66,6.122-17.664,12.758c-39.797-10.402-84.382-16.172-127.598-16.172
		c-43.172,0-87.762,5.77-127.558,16.172c-4.004-6.637-10.442-11.344-17.703-12.758l-2.59-12.05
		c43.683-14.836,96.75-23.234,147.851-23.234c51.141,0,104.207,8.398,147.891,23.234L401.287,290.753z M408.978,329.257
		c-1.609,0.707-3.297,1.098-4.867,1.098c-0.667,0-1.293-0.039-1.922-0.195c-3.297-0.707-5.73-3.414-6.789-6.949v-0.039
		c-0.278-0.981-0.434-2-0.473-3.098c-0.078-1.297,0-2.629,0.313-4.004c0.277-1.336,0.746-2.59,1.374-3.73
		c0.825-1.688,2-3.137,3.336-4.16c1.726-1.414,3.73-2.157,5.77-2.157c0.59,0,1.141,0.039,1.688,0.157
		c2.082,0.469,4.16,1.804,5.808,3.648c0.863,0.985,1.61,2.16,2.161,3.375c1.098,2.278,1.492,4.906,0.941,7.5
		c-0.707,3.258-2.824,5.847-5.414,7.574h-0.039c-0.629,0.39-1.219,0.706-1.848,0.98H408.978z M196.248,127.046l7.774-9.183
		l0.078-0.078c0.312-0.355,2.824-3.336,4.672-5.847l6.394-8.559l5.144-6.945l8.203,2.863l10.086,3.531
		c0.707,0.278,1.57,0.394,2.473,0.394c1.922,0,3.531-0.55,3.886-0.668l6.278-3.062l5.574-2.746l5.379,3.024l5.141,2.902
		c0.746,0.238,2.121,0.55,3.57,0.55c0.941,0,1.766-0.117,2.511-0.394l10.09-3.531l8.16-2.863l5.183,6.945l6.356,8.559
		c1.687,2.274,4.046,5.102,4.75,5.926l7.813,9.183l6.32,7.458l-6.125,7.574l-6.633,8.202c0.512,1.57,1.531,4.278,3.492,8.871
		c8.438,19.626,4.555,38.738-11.266,55.184c-3.961,4.121-8.359,7.734-12.714,10.832c-8.203,5.886-16.29,9.93-20.997,12.324
		l-4.671,2.356l-1.883,0.941l-5.301,2.672l-5.297-2.672l-1.886-0.941l-4.629-2.356c-4.711-2.394-12.798-6.438-21-12.324
		c-4.356-3.098-8.754-6.711-12.715-10.832c-15.82-16.446-19.703-35.558-11.305-55.184c2-4.594,3.023-7.301,3.531-8.871l-6.633-8.202
		l-6.16-7.574L196.248,127.046z M122.631,340.987c2.98-2.262,5.48-5.25,7.25-8.824c2.078-4.164,3.058-8.832,2.942-13.582
		c38.386-10.008,81.402-15.543,123.164-15.543s84.817,5.535,123.203,15.543c-0.117,4.75,0.863,9.418,2.942,13.582
		c1.363,2.75,3.258,5.031,5.367,7.031c0.621,0.645,1.187,1.34,1.851,1.93c-27.59-3.738-86.332-10.965-133.363-10.965
		c-37.793,0-83.179,4.672-113.847,8.446C134.866,339.464,128.287,340.277,122.631,340.987z M257.482,415.358
		c-71.945-0.277-105.851-22.637-121.793-44.301c-0.512-0.629-0.981-1.297-1.414-1.965l12.051,0.668h0.078l57.343,3.141
		c10.199,15.566,24.379,27.894,40.906,36.5C248.779,411.589,253.034,413.613,257.482,415.358z" style="fill: rgb(255, 255, 255);"></path>
</g>
</svg>
