<?xml version="1.0" encoding="utf-8"?>
<svg version="1.1"
     xmlns="http://www.w3.org/2000/svg"
     x="0px" y="0px" width="152px" height="152px"
     viewBox="0 0 75.58 35.67"
     preserveAspectRatio="xMidYMid meet"
>
  <!-- x="0px" y="0px" width="52px" height="52px" viewBox="0 0 1024 792" enable-background="new 0 0 1024 792" xml:space="preserve" -->

  <!-- optional background -->
  <!--<rect width="75.58" height="35.67" fill="#a0a7b2" fill-opacity="0"/>-->

  <g transform="scale(1) translate(1 4)">
    <g transform="scale(1 .6)">
      <g transform="scale(1.42)">
        <linearGradient id="SVGID_1_" gradientUnits="userSpaceOnUse" x1="0.25" y1="11.9961" x2="14.8916" y2="11.9961">
          <stop offset="0" style="stop-color:#BE1E2D"/>
          <stop offset="1" style="stop-color:#F15A29"/>
        </linearGradient>
        <linearGradient id="SVGID_2_" gradientUnits="userSpaceOnUse" x1="15.0469" y1="11.9961" x2="29.6855"
                        y2="11.9961">
          <stop offset="0" style="stop-color:#BE1E2D"/>
          <stop offset="1" style="stop-color:#F15A29"/>
        </linearGradient>
        <linearGradient id="SVGID_3_" gradientUnits="userSpaceOnUse" x1="24.5469" y1="12.5703" x2="29.6855"
                        y2="12.5703">
          <stop offset="0" style="stop-color:#BE1E2D"/>
          <stop offset="1" style="stop-color:#F15A29"/>
        </linearGradient>
        <linearGradient id="SVGID_4_" gradientUnits="userSpaceOnUse" x1="24.8574" y1="22.6904" x2="47.1299"
                        y2="22.6904">
          <stop offset="0" style="stop-color:#BE1E2D"/>
          <stop offset="1" style="stop-color:#F15A29"/>
        </linearGradient>
        <polyline fill="url(#SVGID_1_)" fill-opacity="1"
                  points="14.892,23.840 14.892,14.937 5.701,0.152 0.250,0.152"/>
        <polyline fill="url(#SVGID_2_)" fill-opacity="1"
                  points="15.047,23.840 29.686,0.152 24.236,0.152 15.047,15.079"/>
        <polyline fill="url(#SVGID_3_)" fill-opacity="1"
                  points="24.547,8.614 29.686,0.298 29.686,20.031 24.547,24.843"/>
        <polyline fill="url(#SVGID_4_)" fill-opacity="1"
                  points="24.621,24.893 29.686,20.150 39.125,20.150 44.190,24.893"/>
      </g>
    </g>
    <!--<text transform="matrix(1 0 0 1 0 31.8)" fill="#F15A22" font-family="Backslash" font-size="20">violox</text>-->
    <g transform="translate(0 20) scale(.93)">
      <g transform="translate(-210 -376.00)">
        <path id="violox"
              fill="#F15A22" stroke="none" stroke-width="1"
              d="M 219.78,384.00
           C 219.78,384.00 225.45,378.00 225.45,378.00
             225.45,378.00 223.06,378.00 223.06,378.00
             223.06,378.00 219.08,382.33 219.08,382.33
             219.08,382.33 214.91,378.00 214.91,378.00
             214.91,378.00 212.16,378.00 212.16,378.00
             212.16,378.00 218.12,384.00 218.12,384.00
             218.12,384.00 219.78,384.00 219.78,384.00 Z
           M 229.39,384.00
           C 229.39,384.00 229.39,378.00 229.39,378.00
             229.39,378.00 227.00,378.00 227.00,378.00
             227.00,378.00 227.00,384.00 227.00,384.00
             227.00,384.00 229.39,384.00 229.39,384.00 Z
           M 232.00,382.56
           C 232.00,383.12 232.18,383.51 232.53,383.70
             232.89,383.90 233.59,384.00 234.61,384.00
             234.61,384.00 242.39,384.00 242.39,384.00
             243.41,384.00 244.10,383.90 244.45,383.70
             244.82,383.51 245.00,383.12 245.00,382.56
             245.00,382.56 245.00,379.42 245.00,379.42
             245.00,378.87 244.82,378.50 244.45,378.30
             244.10,378.10 243.41,378.00 242.39,378.00
             242.39,378.00 234.61,378.00 234.61,378.00
             233.59,378.00 232.89,378.10 232.53,378.30
             232.18,378.50 232.00,378.87 232.00,379.42
             232.00,379.42 232.00,382.56 232.00,382.56 Z
           M 234.39,379.11
           C 234.39,379.11 242.61,379.11 242.61,379.11
             242.61,379.11 242.61,382.89 242.61,382.89
             242.61,382.89 234.39,382.89 234.39,382.89
             234.39,382.89 234.39,379.11 234.39,379.11 Z
           M 257.12,384.00
           C 257.12,384.00 257.12,382.86 257.12,382.86
             257.12,382.86 249.39,382.86 249.39,382.86
             249.39,382.86 249.39,378.00 249.39,378.00
             249.39,378.00 247.00,378.00 247.00,378.00
             247.00,378.00 247.00,384.00 247.00,384.00
             247.00,384.00 257.12,384.00 257.12,384.00 Z
           M 260.00,382.56
           C 260.00,383.12 260.18,383.51 260.53,383.70
             260.89,383.90 261.59,384.00 262.61,384.00
             262.61,384.00 270.39,384.00 270.39,384.00
             271.41,384.00 272.10,383.90 272.45,383.70
             272.82,383.51 273.00,383.12 273.00,382.56
             273.00,382.56 273.00,379.42 273.00,379.42
             273.00,378.87 272.82,378.50 272.45,378.30
             272.10,378.10 271.41,378.00 270.39,378.00
             270.39,378.00 262.61,378.00 262.61,378.00
             261.59,378.00 260.89,378.10 260.53,378.30
             260.18,378.50 260.00,378.87 260.00,379.42
             260.00,379.42 260.00,382.56 260.00,382.56 Z
           M 262.39,379.11
           C 262.39,379.11 270.61,379.11 270.61,379.11
             270.61,379.11 270.61,382.89 270.61,382.89
             270.61,382.89 262.39,382.89 262.39,382.89
             262.39,382.89 262.39,379.11 262.39,379.11 Z
           M 277.44,384.00
           C 277.44,384.00 280.92,381.67 280.92,381.67
             280.92,381.67 284.70,384.00 284.70,384.00
             284.70,384.00 287.97,384.00 287.97,384.00
             287.97,384.00 282.41,380.75 282.41,380.75
             282.41,380.75 286.91,378.00 286.91,378.00
             286.91,378.00 284.14,378.00 284.14,378.00
             284.14,378.00 281.00,380.03 281.00,380.03
             281.00,380.03 277.70,378.00 277.70,378.00
             277.70,378.00 274.52,378.00 274.52,378.00
             274.52,378.00 279.50,380.92 279.50,380.92
             279.50,380.92 274.61,384.00 274.61,384.00
             274.61,384.00 277.44,384.00 277.44,384.00 Z"/>
      </g>

    </g>

  </g>


</svg>


